<svg xmlns="http://www.w3.org/2000/svg" viewBox="0 0 511.979 511.979">
	<path
		d="M511.476 242.599a15.003 15.003 0 00-21.417-12.777c-12.264 5.827-25.42 8.781-39.104 8.781-50.353 0-91.318-40.995-91.318-91.386 0-12.611 2.521-24.826 7.494-36.307a15.002 15.002 0 00-19.691-19.742c-7.114 3.06-14.676 4.611-22.473 4.611-31.427 0-56.995-25.589-56.995-57.042 0-6.414 1.07-12.736 3.179-18.788A15 15 0 00257.074.011l-.27-.004c-.271-.003-.542-.007-.815-.007-68.337 0-132.584 26.629-180.905 74.981C26.766 123.33.156 187.614.156 255.989s26.61 132.659 74.928 181.008c48.321 48.353 112.568 74.981 180.905 74.981s132.584-26.629 180.905-74.981c48.318-48.349 74.928-112.633 74.928-181.008.001-4.416-.116-8.922-.346-13.39zm-95.802 173.192c-42.654 42.682-99.365 66.188-159.685 66.188s-117.031-23.506-159.685-66.188c-42.656-42.684-66.148-99.436-66.148-159.802S53.648 138.871 96.304 96.188c38.468-38.493 88.368-61.389 142.039-65.513a87.285 87.285 0 00-.372 8.063c0 47.995 39.026 87.042 86.995 87.042 2.211 0 4.411-.082 6.596-.245a122.044 122.044 0 00-1.926 21.682c0 66.933 54.423 121.386 121.318 121.386 10.495 0 20.76-1.311 30.705-3.912-2.146 57.1-25.385 110.474-65.985 151.1z" />
	<path
		d="M148.083 243.363c27.255 0 49.429-22.185 49.429-49.452s-22.174-49.451-49.429-49.451c-27.256 0-49.43 22.184-49.43 49.451s22.174 49.452 49.43 49.452zm0-68.903c10.713 0 19.429 8.726 19.429 19.451s-8.716 19.452-19.429 19.452-19.43-8.727-19.43-19.452 8.716-19.451 19.43-19.451zM157.722 287.95c-25.306 0-45.893 20.597-45.893 45.913s20.587 45.913 45.893 45.913 45.894-20.597 45.894-45.913-20.588-45.913-45.894-45.913zm0 61.826c-8.764 0-15.893-7.139-15.893-15.913s7.129-15.913 15.893-15.913 15.894 7.139 15.894 15.913-7.13 15.913-15.894 15.913zM365.166 296.002c-27.255 0-49.429 22.184-49.429 49.451s22.174 49.452 49.429 49.452c27.256 0 49.43-22.185 49.43-49.452s-22.174-49.451-49.43-49.451zm0 68.903c-10.713 0-19.429-8.727-19.429-19.452s8.716-19.451 19.429-19.451 19.43 8.726 19.43 19.451-8.717 19.452-19.43 19.452zM276.542 379.905c-8.137 0-14.734 6.601-14.734 14.743 0 8.143 6.597 14.744 14.734 14.744s14.734-6.601 14.734-14.744c0-8.142-6.597-14.743-14.734-14.743z" />
	<ellipse cx="188.616" cy="86.059" rx="14.734" ry="14.744" />
	<ellipse cx="86.207" cy="288.206" rx="14.734" ry="14.744" />
	<path
		d="M227.791 207.791c-8.137 0-14.734 6.601-14.734 14.744s6.597 14.743 14.734 14.743 14.734-6.601 14.734-14.743c0-8.143-6.596-14.744-14.734-14.744z" />
	<ellipse cx="316.003" cy="266.91" rx="14.734" ry="14.744" />
</svg>
