<svg xmlns="http://www.w3.org/2000/svg" width="340" height="340" viewBox="-49 141 340 340"><path d="m156.217 311 127.49-127.489c9.724-9.725 9.724-25.492 0-35.217-9.727-9.725-25.493-9.725-35.218 0L121 275.782-6.489 148.294c-9.726-9.725-25.492-9.725-35.217 0-9.725 9.725-9.725 25.492 0 35.217L85.782 311-41.706 438.488c-9.725 9.725-9.725 25.492 0 35.217 9.726 9.725 25.492 9.725 35.217 0L121 346.217l127.489 127.49c9.726 9.724 25.492 9.724 35.217 0 9.725-9.726 9.725-25.493 0-35.218z" style="stroke-width:.996108"/></svg>